<?xml version="1.0" standalone="no"?>
<!DOCTYPE svg PUBLIC "-//W3C//DTD SVG 20010904//EN"
 "http://www.w3.org/TR/2001/REC-SVG-20010904/DTD/svg10.dtd">
<svg version="1.0" xmlns="http://www.w3.org/2000/svg"
 width="192.000000pt" height="192.000000pt" viewBox="0 0 192.000000 192.000000"
 preserveAspectRatio="xMidYMid meet">

<g transform="translate(0.000000,192.000000) scale(0.100000,-0.100000)"
fill="#000000" stroke="none">
<path d="M895 1860 c-90 -9 -178 -28 -198 -43 -9 -7 -23 -28 -31 -48 l-15 -37
82 -7 c45 -4 119 -13 165 -20 70 -12 96 -12 155 0 40 7 111 16 160 20 48 4 87
9 87 11 0 3 -9 22 -20 44 -27 54 -66 65 -280 84 -19 1 -66 0 -105 -4z"/>
<path d="M340 1550 c-59 -7 -61 -9 -114 -89 -80 -120 -129 -257 -145 -404 -8
-71 -7 -73 25 -119 18 -26 40 -71 49 -99 23 -69 29 -56 10 22 l-15 64 49 102
c27 56 66 127 85 158 20 30 36 68 36 83 0 29 42 209 60 256 6 16 9 29 8 30 -2
1 -23 -1 -48 -4z"/>
<path d="M1575 1533 c14 -38 45 -161 56 -226 8 -50 25 -91 61 -155 28 -48 65
-119 82 -159 l32 -72 37 30 c44 36 46 58 18 195 -24 114 -64 211 -131 312 -54
82 -69 92 -137 92 -20 0 -24 -4 -18 -17z m70 -97 c14 -47 21 -156 9 -144 -3 3
-14 46 -24 94 -10 49 -22 100 -25 114 -6 24 -6 24 10 5 8 -11 22 -42 30 -69z"/>
<path d="M971 1440 c-1 -32 -7 -38 -64 -72 -35 -20 -116 -75 -181 -122 -64
-47 -125 -86 -133 -86 -15 0 -15 -1 -1 -12 8 -7 32 -71 53 -143 21 -71 50
-166 66 -209 l29 -79 -93 -133 c-50 -73 -99 -133 -107 -134 -20 0 -142 58
-231 111 -38 23 -71 40 -73 38 -2 -2 -11 -28 -19 -56 l-16 -52 46 -63 c84
-114 196 -209 321 -272 34 -17 61 -25 75 -21 15 4 18 3 9 -3 -10 -7 -6 -12 17
-21 28 -12 33 -10 84 26 l54 38 -96 95 c-53 52 -109 112 -125 132 l-28 38 70
97 c39 54 83 112 99 130 l28 32 229 3 229 3 93 -135 93 -134 -39 -46 c-21 -25
-77 -83 -124 -129 -47 -46 -86 -85 -86 -86 0 -1 24 -19 54 -39 l53 -37 62 25
c140 57 268 154 367 280 69 86 67 78 43 168 l-10 37 -37 -26 c-44 -30 -250
-133 -266 -133 -10 0 -154 194 -183 246 -11 18 -7 37 21 120 18 55 47 151 65
215 l33 116 47 17 c25 9 35 14 21 11 -14 -3 -36 -8 -50 -11 -20 -4 -48 12
-135 76 -60 45 -142 102 -182 126 -61 39 -72 50 -76 77 l-4 32 -2 -35z m195
-171 c3 -6 -17 6 -45 26 -28 20 -51 39 -51 41 0 7 88 -55 96 -67z m304 -1044
c-15 -18 -166 -95 -186 -95 -28 0 -13 17 24 28 20 7 66 27 102 46 76 40 76 40
60 21z"/>
<path d="M338 1223 c7 -3 16 -2 19 1 4 3 -2 6 -13 5 -11 0 -14 -3 -6 -6z"/>
<path d="M385 1210 c11 -5 27 -9 35 -9 9 0 8 4 -5 9 -11 5 -27 9 -35 9 -9 0
-8 -4 5 -9z"/>
<path d="M455 1190 c11 -5 27 -9 35 -9 9 0 8 4 -5 9 -11 5 -27 9 -35 9 -9 0
-8 -4 5 -9z"/>
<path d="M1488 1193 c7 -3 16 -2 19 1 4 3 -2 6 -13 5 -11 0 -14 -3 -6 -6z"/>
<path d="M525 1170 c11 -5 27 -9 35 -9 9 0 8 4 -5 9 -11 5 -27 9 -35 9 -9 0
-8 -4 5 -9z"/>
<path d="M1763 750 c-5 -22 -7 -37 -2 -35 9 6 23 64 17 70 -2 3 -9 -13 -15
-35z"/>
</g>
</svg>
